<svg width="373" height="254" viewBox="0 0 373 254" fill="none" xmlns="http://www.w3.org/2000/svg">
<path d="M4.25 86.75C5.25 81.6667 7.08333 77.6667 9.75 74.75C12.4167 71.75 15.4583 69.7083 18.875 68.625C22.375 67.5417 26.0833 67.2917 30 67.875C34 68.375 37.75 69.5833 41.25 71.5C44.8333 73.4167 47.9583 75.9167 50.625 79C53.2917 82 55.1667 85.4583 56.25 89.375C57.3333 93.2083 57.3333 97.375 56.25 101.875C55.1667 106.375 52.7083 111 48.875 115.75C51.875 116.833 54.6667 117.917 57.25 119C59.8333 120.083 62 121.417 63.75 123C65.5833 124.583 67 126.5 68 128.75C69 131 69.5 133.792 69.5 137.125C69.5 139.875 69 142.792 68 145.875C67 148.958 65.5833 152 63.75 155C62 158 59.9167 160.875 57.5 163.625C55.1667 166.292 52.625 168.667 49.875 170.75C47.125 172.833 44.2917 174.5 41.375 175.75C38.5417 176.917 35.75 177.5 33 177.5C31.1667 177.5 29.375 176.333 27.625 174C25.875 171.667 24.1667 168.583 22.5 164.75C20.8333 160.917 19.2083 156.5 17.625 151.5C16.0417 146.5 14.5833 141.333 13.25 136C11.9167 130.583 10.7083 125.25 9.625 120C8.54167 114.667 7.58333 109.75 6.75 105.25C6 100.75 5.375 96.875 4.875 93.625C4.45833 90.2917 4.25 88 4.25 86.75ZM26.5 140.875C26.5 142.292 26.8333 144.167 27.5 146.5C28.1667 148.833 29 151.167 30 153.5C31.0833 155.833 32.25 158 33.5 160C34.75 161.917 36.0833 163.208 37.5 163.875C38.6667 164.542 40.0417 164.5 41.625 163.75C43.2083 162.917 44.7917 161.667 46.375 160C48.0417 158.25 49.625 156.292 51.125 154.125C52.625 151.875 53.9583 149.667 55.125 147.5C56.375 145.333 57.3333 143.333 58 141.5C58.75 139.583 59.125 138.125 59.125 137.125C59.125 134.958 58.8333 133.208 58.25 131.875C57.6667 130.458 56.7917 129.333 55.625 128.5C54.5417 127.667 53.2083 127.083 51.625 126.75C50.125 126.417 48.4583 126.25 46.625 126.25C44.5417 126.25 42.3333 126.583 40 127.25C37.6667 127.917 35.5 128.875 33.5 130.125C31.5833 131.375 29.9167 132.917 28.5 134.75C27.1667 136.583 26.5 138.625 26.5 140.875ZM18.5 98.375C18.5 99.875 18.4583 101.75 18.375 104C18.2917 106.167 18.2917 108.417 18.375 110.75C18.4583 113.083 18.7083 115.417 19.125 117.75C19.5417 120.083 20.2917 122.083 21.375 123.75C25.4583 123 29 121.583 32 119.5C35.0833 117.417 37.5417 115 39.375 112.25C41.2917 109.417 42.6667 106.417 43.5 103.25C44.3333 100.083 44.625 97 44.375 94C44.2083 91 43.5 88.25 42.25 85.75C41.0833 83.25 39.4167 81.3333 37.25 80C35.0833 78.5833 32.4583 77.875 29.375 77.875C26.2917 77.875 22.75 78.875 18.75 80.875C18.75 81.5417 18.7083 82.7083 18.625 84.375C18.625 86.0417 18.5833 87.7917 18.5 89.625C18.5 91.4583 18.5 93.2083 18.5 94.875C18.5 96.5417 18.5 97.7083 18.5 98.375ZM82.75 133.125C82.75 132.625 82.75 131.833 82.75 130.75C82.8333 129.583 82.875 128.375 82.875 127.125C82.9583 125.875 83 124.667 83 123.5C83.0833 122.333 83.125 121.5 83.125 121C84.0417 119.667 85.2083 118.583 86.625 117.75C88.125 116.917 89.625 116.25 91.125 115.75C91.375 120.25 92.0833 125.042 93.25 130.125C94.4167 135.208 95.6667 140.333 97 145.5C98.3333 150.583 99.5 155.625 100.5 160.625C101.583 165.625 102.125 170.292 102.125 174.625C102.125 178.375 100.208 180.25 96.375 180.25C94.0417 180.25 92.0833 179.292 90.5 177.375C88.9167 175.458 87.625 173.042 86.625 170.125C85.7083 167.125 84.9583 163.833 84.375 160.25C83.7917 156.583 83.375 153 83.125 149.5C82.9583 146 82.8333 142.792 82.75 139.875C82.75 136.958 82.75 134.708 82.75 133.125ZM84.5 86.25C86.0833 86.9167 87.4167 88 88.5 89.5C89.5833 91 90.0417 92.375 89.875 93.625C89.7917 94.7917 88.875 95.625 87.125 96.125C85.375 96.5417 82.4583 96.0417 78.375 94.625C78.375 92.375 78.7917 90.4167 79.625 88.75C80.5417 87.0833 82.1667 86.25 84.5 86.25ZM107 137.875C107 135.708 107.542 134.167 108.625 133.25C109.708 132.25 111.458 131.75 113.875 131.75H115.125C115.375 133.083 115.667 134.625 116 136.375C116.333 138.125 116.833 139.917 117.5 141.75C118.167 143.583 118.958 145.292 119.875 146.875C120.792 148.375 121.917 149.583 123.25 150.5C123.333 147.583 124.042 144.792 125.375 142.125C126.792 139.375 128.5 136.958 130.5 134.875C132.583 132.708 134.833 130.917 137.25 129.5C139.75 128 142.208 127 144.625 126.5H147.375C151.375 126.5 154.792 127.417 157.625 129.25C160.458 131 162.792 133.333 164.625 136.25C166.542 139.083 168 142.333 169 146C170 149.667 170.75 153.417 171.25 157.25C171.833 161 172.167 164.667 172.25 168.25C172.417 171.75 172.5 174.75 172.5 177.25H163.375C162.875 172.25 162.25 167.458 161.5 162.875C161.25 161.042 160.917 159.125 160.5 157.125C160.083 155.042 159.625 153.125 159.125 151.375C158.625 149.542 158.083 147.875 157.5 146.375C156.917 144.792 156.25 143.458 155.5 142.375C155.167 142.042 154.708 141.583 154.125 141C153.625 140.417 153.083 139.833 152.5 139.25C151.917 138.667 151.375 138.167 150.875 137.75C150.375 137.333 150.083 137.125 150 137.125C147.5 136.458 145.333 136.958 143.5 138.625C141.667 140.208 140.042 142.375 138.625 145.125C137.208 147.875 136.042 151 135.125 154.5C134.292 158 133.583 161.375 133 164.625C132.417 167.792 132 170.583 131.75 173C131.5 175.333 131.333 176.75 131.25 177.25C129.167 178.75 127.208 179.208 125.375 178.625C123.542 177.958 121.792 176.625 120.125 174.625C118.542 172.625 117.083 170.125 115.75 167.125C114.5 164.125 113.333 160.958 112.25 157.625C111.167 154.208 110.167 150.792 109.25 147.375C108.417 143.958 107.667 140.792 107 137.875ZM211.625 246.5C216.292 246.5 220.458 245.625 224.125 243.875C227.792 242.208 230.875 239.875 233.375 236.875C235.958 233.958 237.917 230.583 239.25 226.75C240.667 223 241.375 219.083 241.375 215C241.375 212.917 241.25 210.167 241 206.75C240.833 203.333 240.542 199.625 240.125 195.625C239.708 191.625 239.083 187.542 238.25 183.375C237.5 179.208 236.542 175.292 235.375 171.625C234.208 167.875 232.75 164.625 231 161.875C229.333 159.042 227.375 157.042 225.125 155.875C222.958 157.542 220.833 159.083 218.75 160.5C216.667 161.833 214.5 162.958 212.25 163.875C210 164.792 207.667 165.542 205.25 166.125C202.833 166.625 200.25 166.875 197.5 166.875C193.917 166.875 190.833 166.542 188.25 165.875C185.75 165.208 183.625 164.083 181.875 162.5C180.208 160.917 178.958 158.833 178.125 156.25C177.292 153.667 176.875 150.417 176.875 146.5C176.875 143.75 177.542 141.083 178.875 138.5C180.208 135.833 181.958 133.375 184.125 131.125C186.375 128.792 188.875 126.667 191.625 124.75C194.458 122.833 197.333 121.167 200.25 119.75C203.25 118.333 206.167 117.25 209 116.5C211.917 115.75 214.5 115.375 216.75 115.375C218.917 115.375 220.708 115.458 222.125 115.625C223.542 115.708 224.75 116.042 225.75 116.625C226.75 117.125 227.583 117.958 228.25 119.125C229 120.208 229.708 121.708 230.375 123.625C232.292 130.125 234.5 137.125 237 144.625C239.5 152.125 241.875 159.833 244.125 167.75C246.375 175.667 248.25 183.625 249.75 191.625C251.333 199.708 252.125 207.5 252.125 215C252.125 221.667 251.167 227.292 249.25 231.875C247.417 236.542 244.958 240.333 241.875 243.25C238.875 246.25 235.417 248.542 231.5 250.125C227.667 251.708 223.792 252.708 219.875 253.125C215.958 253.625 212.167 253.75 208.5 253.5C204.833 253.25 201.667 252.75 199 252C196.333 251.333 194.292 250.542 192.875 249.625C191.542 248.708 191.208 247.917 191.875 247.25C192.625 246.667 194.542 246.25 197.625 246C200.708 245.75 205.375 245.917 211.625 246.5ZM213.375 125.875C207.208 127.208 202.208 129.083 198.375 131.5C194.625 133.833 191.792 136.375 189.875 139.125C188.042 141.792 187.042 144.5 186.875 147.25C186.708 149.917 187.208 152.208 188.375 154.125C189.542 156.042 191.208 157.5 193.375 158.5C195.625 159.417 198.167 159.458 201 158.625C203.833 157.708 206.833 155.792 210 152.875C213.25 149.958 216.5 145.625 219.75 139.875C219.75 138.458 219.75 136.917 219.75 135.25C219.833 133.583 219.708 132.083 219.375 130.75C219.042 129.333 218.417 128.167 217.5 127.25C216.583 126.333 215.208 125.875 213.375 125.875Z" fill="#233D4D"/>
<ellipse cx="281.5" cy="145" rx="32.5" ry="33" fill="#619B8A"/>
<path d="M267.25 147.312C267.25 144.729 267.854 142.333 269.062 140.125C270.271 137.875 271.854 135.958 273.812 134.375C275.812 132.75 278.042 131.479 280.5 130.562C283 129.646 285.521 129.188 288.062 129.188C289.479 129.188 290.729 129.646 291.812 130.562C292.938 131.479 293.875 132.604 294.625 133.938C295.375 135.229 295.938 136.604 296.312 138.062C296.729 139.521 296.938 140.792 296.938 141.875C296.938 144.208 296.375 146.479 295.25 148.688C294.125 150.854 292.667 152.792 290.875 154.5C289.083 156.167 287.062 157.521 284.812 158.562C282.562 159.604 280.312 160.125 278.062 160.125C276.062 160.125 274.375 159.792 273 159.125C271.625 158.417 270.521 157.5 269.688 156.375C268.854 155.208 268.229 153.854 267.812 152.312C267.438 150.729 267.25 149.062 267.25 147.312ZM272.562 147.938C272.562 149.021 272.646 149.979 272.812 150.812C273.021 151.604 273.354 152.292 273.812 152.875C274.312 153.458 274.958 153.917 275.75 154.25C276.542 154.542 277.521 154.688 278.688 154.688C280.229 154.688 281.771 154.271 283.312 153.438C284.854 152.562 286.229 151.479 287.438 150.188C288.688 148.854 289.688 147.396 290.438 145.812C291.188 144.229 291.562 142.688 291.562 141.188C291.562 140.521 291.5 139.792 291.375 139C291.25 138.208 291.042 137.479 290.75 136.812C290.458 136.146 290.042 135.583 289.5 135.125C288.958 134.667 288.271 134.438 287.438 134.438C286.688 134.438 285.792 134.688 284.75 135.188C283.75 135.688 282.688 136.333 281.562 137.125C280.479 137.917 279.396 138.812 278.312 139.812C277.271 140.812 276.312 141.812 275.438 142.812C274.562 143.812 273.854 144.771 273.312 145.688C272.812 146.604 272.562 147.354 272.562 147.938Z" fill="#F6F6F6"/>
<path d="M329.259 168.725C330.316 168.96 331.261 169.511 332.092 170.379C333.005 171.265 333.475 172.223 333.502 173.254C333.628 174.221 333.158 175.183 332.092 176.141C331.025 177.099 329.041 177.768 326.139 178.147C324.015 177.333 322.547 176.452 321.733 175.503C321.019 174.49 320.671 173.559 320.69 172.71C320.807 171.797 321.201 170.988 321.87 170.283C322.638 169.515 323.451 168.927 324.31 168.521C325.268 168.051 326.213 167.834 327.144 167.87C328.093 167.825 328.798 168.11 329.259 168.725ZM338.123 85.6685C340.772 84.1233 342.58 84.0557 343.547 85.4659C344.514 86.8761 344.929 89.2307 344.793 92.5299C344.738 95.8471 344.254 99.7518 343.341 104.244C342.445 108.655 341.482 113.178 340.451 117.815C339.501 122.47 338.606 126.881 337.765 131.048C337.005 135.232 336.639 138.608 336.665 141.175C336.394 142.396 336.077 143.435 335.716 144.294C335.354 145.152 334.907 145.821 334.373 146.3C333.84 146.779 333.09 147.082 332.123 147.208C331.173 147.253 329.967 147.113 328.503 146.787C328.259 146.733 328.042 146.557 327.852 146.259C327.662 145.96 327.572 145.215 327.581 144.021C327.608 142.747 327.771 140.862 328.07 138.368C328.387 135.792 328.92 132.24 329.671 127.711C330.503 123.201 331.548 117.543 332.805 110.737C334.144 103.949 335.917 95.5928 338.123 85.6685Z" fill="#233D4D"/>
</svg>
