<?xml version="1.0" encoding="UTF-8"?>
<svg xmlns="http://www.w3.org/2000/svg" id="Layer_1" data-name="Layer 1" viewBox="0 0 24 24" width="512" height="512"><path d="M13.93,12L21.666,2.443c.521-.644,.422-1.588-.223-2.109-.645-.522-1.588-.421-2.109,.223l-7.334,9.06L4.666,.557c-1.241-1.519-3.56,.357-2.332,1.887l7.736,9.557L2.334,21.557c-.521,.644-.422,1.588,.223,2.109,.64,.519,1.586,.424,2.109-.223l7.334-9.06,7.334,9.06c.524,.647,1.47,.742,2.109,.223,.645-.521,.744-1.466,.223-2.109l-7.736-9.557Z"/></svg>
